<svg xmlns="http://www.w3.org/2000/svg" xmlns:xlink="http://www.w3.org/1999/xlink" preserveAspectRatio="xMidYMid" width="500" height="500" viewBox="0 0 500 500">
  <defs>
    <style>
      .cls-1 {
        fill: #181818;
        fill-rule: evenodd;
      }
    </style>
  </defs>
  <path d="M449.005,79.500 L369.995,119.012 L369.995,104.000 L313.008,104.000 L218.000,448.820 L218.000,450.000 L217.675,450.000 L217.624,450.183 L216.961,450.000 L50.000,450.000 L50.000,400.000 L178.667,400.000 L274.000,54.000 L275.000,54.276 L275.000,54.000 L369.995,54.000 L369.995,39.988 L449.005,79.500 Z" class="cls-1"/>
  <path d="M449.005,410.518 L369.995,450.012 L369.995,436.006 L275.000,436.006 L275.000,435.731 L274.000,436.006 L178.667,90.165 L50.000,90.165 L50.000,40.187 L216.961,40.187 L217.624,40.005 L217.675,40.187 L218.000,40.187 L218.000,41.367 L313.008,386.029 L369.995,386.029 L369.995,371.024 L449.005,410.518 Z" class="cls-1"/>
</svg>
